<svg xmlns="http://www.w3.org/2000/svg" viewBox="0 0 1200 4800" width="1200" height="4800" preserveAspectRatio="none" aria-hidden="true">
	<defs>
		<radialGradient id="gRed" cx="40%" cy="35%" r="65%">
			<stop offset="0%" stop-color="#d64f59" stop-opacity="0.9"/>
			<stop offset="60%" stop-color="#d64f59" stop-opacity="0.2"/>
			<stop offset="100%" stop-color="#d64f59" stop-opacity="0"/>
		</radialGradient>
		<radialGradient id="gRose" cx="40%" cy="35%" r="65%">
			<stop offset="0%" stop-color="#e8879b" stop-opacity="0.9"/>
			<stop offset="60%" stop-color="#e8879b" stop-opacity="0.2"/>
			<stop offset="100%" stop-color="#e8879b" stop-opacity="0"/>
		</radialGradient>
		<radialGradient id="gPink" cx="40%" cy="35%" r="65%">
			<stop offset="0%" stop-color="#f4c2cb" stop-opacity="0.9"/>
			<stop offset="60%" stop-color="#f4c2cb" stop-opacity="0.2"/>
			<stop offset="100%" stop-color="#f4c2cb" stop-opacity="0"/>
		</radialGradient>
		<radialGradient id="gGold" cx="40%" cy="35%" r="65%">
			<stop offset="0%" stop-color="#f6ae2d" stop-opacity="0.9"/>
			<stop offset="60%" stop-color="#f6ae2d" stop-opacity="0.2"/>
			<stop offset="100%" stop-color="#f6ae2d" stop-opacity="0"/>
		</radialGradient>
		<linearGradient id="trail" x1="0" y1="0" x2="0" y2="1">
			<stop offset="0%" stop-color="#d64f59" stop-opacity="0.7"/>
			<stop offset="40%" stop-color="#e8879b" stop-opacity="0.7"/>
			<stop offset="75%" stop-color="#f4c2cb" stop-opacity="0.7"/>
			<stop offset="100%" stop-color="#f6ae2d" stop-opacity="0.7"/>
		</linearGradient>
		<filter id="blurSoft" x="-60%" y="-60%" width="220%" height="220%">
			<feGaussianBlur stdDeviation="22"/>
		</filter>
		<filter id="blurHeart" x="-50%" y="-50%" width="200%" height="200%">
			<feGaussianBlur stdDeviation="16"/>
		</filter>
		<filter id="glowTiny" x="-80%" y="-80%" width="260%" height="260%">
			<feGaussianBlur stdDeviation="8" result="b"/>
			<feMerge><feMergeNode in="b"/><feMergeNode in="SourceGraphic"/></feMerge>
		</filter>
		<path id="heart" d="M0,-8 C-2,-15 -15,-15 -15,-5 C-15,5 0,15 0,15 C0,15 15,5 15,-5 C15,-15 2,-15 0,-8Z"/>
	</defs>

	<rect width="1200" height="4800" fill="#f5d0dc"/>

	<!-- Soft atmospheric glows -->
	<circle cx="200" cy="300" r="260" fill="url(#gRed)" opacity="0.22" filter="url(#blurSoft)"/>
	<circle cx="950" cy="600" r="220" fill="url(#gRose)" opacity="0.22" filter="url(#blurSoft)"/>
	<circle cx="400" cy="1100" r="240" fill="url(#gPink)" opacity="0.25" filter="url(#blurSoft)"/>
	<circle cx="1000" cy="1500" r="200" fill="url(#gGold)" opacity="0.18" filter="url(#blurSoft)"/>
	<circle cx="150" cy="1800" r="280" fill="url(#gRose)" opacity="0.22" filter="url(#blurSoft)"/>
	<circle cx="800" cy="2200" r="250" fill="url(#gRed)" opacity="0.20" filter="url(#blurSoft)"/>
	<circle cx="300" cy="2700" r="230" fill="url(#gRose)" opacity="0.22" filter="url(#blurSoft)"/>
	<circle cx="1050" cy="3000" r="200" fill="url(#gPink)" opacity="0.25" filter="url(#blurSoft)"/>
	<circle cx="500" cy="3400" r="260" fill="url(#gRed)" opacity="0.20" filter="url(#blurSoft)"/>
	<circle cx="180" cy="3900" r="220" fill="url(#gGold)" opacity="0.18" filter="url(#blurSoft)"/>
	<circle cx="900" cy="4200" r="240" fill="url(#gRose)" opacity="0.22" filter="url(#blurSoft)"/>
	<circle cx="400" cy="4600" r="200" fill="url(#gRed)" opacity="0.20" filter="url(#blurSoft)"/>

	<!-- Flowing trail -->
	<g opacity="0.55">
		<path d="M 600 60 C 350 280, 900 550, 580 820 C 280 1060, 950 1340, 620 1600 C 360 1800, 880 2100, 560 2340 C 260 2560, 960 2840, 640 3100 C 380 3340, 840 3620, 580 3880 C 380 4060, 800 4340, 620 4740" fill="none" stroke="url(#trail)" stroke-width="14" stroke-linecap="round" stroke-dasharray="20 16"/>
		<path d="M 540 220 C 760 400, 380 740, 700 960 C 960 1160, 380 1520, 740 1740 C 1000 1900, 440 2200, 760 2440 C 1040 2620, 440 2960, 740 3180 C 960 3320, 540 3660, 800 3900 C 960 4020, 680 4360, 720 4640" fill="none" stroke="#e8d6cc" stroke-width="4" stroke-linecap="round" stroke-dasharray="2 18" opacity="0.5"/>
	</g>

	<!-- Blurred hearts — large, dreamy -->
	<g filter="url(#blurHeart)" opacity="0.25">
		<use href="#heart" fill="#d64f59" transform="translate(350,250) scale(5)"/>
		<use href="#heart" fill="#e8879b" transform="translate(900,450) scale(4)"/>
		<use href="#heart" fill="#f4c2cb" transform="translate(180,900) scale(6)"/>
		<use href="#heart" fill="#d64f59" transform="translate(750,1300) scale(3.5)"/>
		<use href="#heart" fill="#e8879b" transform="translate(400,1700) scale(5)"/>
		<use href="#heart" fill="#f4c2cb" transform="translate(1050,1900) scale(4)"/>
		<use href="#heart" fill="#d64f59" transform="translate(250,2400) scale(4.5)"/>
		<use href="#heart" fill="#e8879b" transform="translate(850,2800) scale(5)"/>
		<use href="#heart" fill="#f4c2cb" transform="translate(500,3200) scale(3.5)"/>
		<use href="#heart" fill="#d64f59" transform="translate(150,3600) scale(4)"/>
		<use href="#heart" fill="#e8879b" transform="translate(950,4000) scale(5.5)"/>
		<use href="#heart" fill="#f4c2cb" transform="translate(400,4400) scale(4)"/>
	</g>

	<!-- Clusters: soft rings + heart-shaped colored glows -->
	<g transform="translate(550,500) rotate(5)">
		<circle r="200" fill="none" stroke="#e8d6cc" stroke-width="1.5" stroke-dasharray="10 10" opacity="0.7"/>
		<circle r="140" fill="none" stroke="#e8d6cc" stroke-width="1.5" stroke-dasharray="2 10" opacity="0.55"/>
		<circle cx="-120" cy="-80" r="90" fill="url(#gRed)" opacity="0.7" filter="url(#blurSoft)"/>
		<circle cx="100" cy="-60" r="80" fill="url(#gRose)" opacity="0.7" filter="url(#blurSoft)"/>
		<circle cx="-40" cy="100" r="70" fill="url(#gGold)" opacity="0.6" filter="url(#blurSoft)"/>
		<use href="#heart" fill="#d64f59" transform="translate(-80,-50) scale(1.2)" opacity="0.85"/>
		<use href="#heart" fill="#e8879b" transform="translate(60,40) scale(0.9)" opacity="0.85"/>
		<circle cx="140" cy="110" r="8" fill="#f6ae2d" opacity="0.9"/>
		<circle cx="-150" cy="60" r="6" fill="#d64f59" opacity="0.9"/>
		<circle cx="80" cy="-120" r="10" fill="#e8879b" opacity="0.9"/>
	</g>

	<g transform="translate(700,1600) rotate(-3)">
		<circle r="180" fill="none" stroke="#e8d6cc" stroke-width="1.5" stroke-dasharray="10 10" opacity="0.65"/>
		<circle r="120" fill="none" stroke="#e8d6cc" stroke-width="1.5" stroke-dasharray="2 10" opacity="0.5"/>
		<circle cx="-80" cy="-100" r="100" fill="url(#gRose)" opacity="0.7" filter="url(#blurSoft)"/>
		<circle cx="90" cy="60" r="75" fill="url(#gPink)" opacity="0.7" filter="url(#blurSoft)"/>
		<circle cx="-30" cy="80" r="85" fill="url(#gRed)" opacity="0.6" filter="url(#blurSoft)"/>
		<use href="#heart" fill="#f4c2cb" transform="translate(50,-60) scale(1.4)" opacity="0.85"/>
		<use href="#heart" fill="#d64f59" transform="translate(-100,30) scale(1)" opacity="0.85"/>
		<circle cx="130" cy="-80" r="7" fill="#f6ae2d" opacity="0.9"/>
		<circle cx="-140" cy="-50" r="9" fill="#e8879b" opacity="0.9"/>
	</g>

	<g transform="translate(400,2700) rotate(4)">
		<circle r="190" fill="none" stroke="#e8d6cc" stroke-width="1.5" stroke-dasharray="10 10" opacity="0.65"/>
		<circle r="130" fill="none" stroke="#e8d6cc" stroke-width="1.5" stroke-dasharray="2 10" opacity="0.5"/>
		<circle cx="110" cy="-70" r="90" fill="url(#gRed)" opacity="0.7" filter="url(#blurSoft)"/>
		<circle cx="-100" cy="50" r="80" fill="url(#gGold)" opacity="0.6" filter="url(#blurSoft)"/>
		<circle cx="20" cy="90" r="95" fill="url(#gRose)" opacity="0.7" filter="url(#blurSoft)"/>
		<use href="#heart" fill="#e8879b" transform="translate(-50,-70) scale(1.3)" opacity="0.85"/>
		<use href="#heart" fill="#d64f59" transform="translate(80,50) scale(1)" opacity="0.85"/>
		<circle cx="-160" cy="-90" r="8" fill="#d64f59" opacity="0.9"/>
		<circle cx="150" cy="80" r="6" fill="#f6ae2d" opacity="0.9"/>
	</g>

	<g transform="translate(800,3800) rotate(-5)">
		<circle r="170" fill="none" stroke="#e8d6cc" stroke-width="1.5" stroke-dasharray="10 10" opacity="0.65"/>
		<circle r="110" fill="none" stroke="#e8d6cc" stroke-width="1.5" stroke-dasharray="2 10" opacity="0.5"/>
		<circle cx="-90" cy="-60" r="85" fill="url(#gPink)" opacity="0.7" filter="url(#blurSoft)"/>
		<circle cx="80" cy="40" r="95" fill="url(#gRed)" opacity="0.65" filter="url(#blurSoft)"/>
		<circle cx="-20" cy="80" r="70" fill="url(#gRose)" opacity="0.7" filter="url(#blurSoft)"/>
		<use href="#heart" fill="#d64f59" transform="translate(40,-40) scale(1.5)" opacity="0.85"/>
		<use href="#heart" fill="#f4c2cb" transform="translate(-70,50) scale(0.9)" opacity="0.85"/>
		<circle cx="140" cy="-100" r="7" fill="#e8879b" opacity="0.9"/>
		<circle cx="-130" cy="90" r="9" fill="#f6ae2d" opacity="0.9"/>
	</g>

	<!-- Crisp small hearts + dots -->
	<g opacity="0.8">
		<use href="#heart" fill="#d64f59" transform="translate(180,400) scale(1.2)"/>
		<use href="#heart" fill="#e8879b" transform="translate(950,350) scale(0.9)"/>
		<use href="#heart" fill="#f4c2cb" transform="translate(300,850) scale(1)"/>
		<use href="#heart" fill="#d64f59" transform="translate(1050,1100) scale(0.8)"/>
		<use href="#heart" fill="#e8879b" transform="translate(120,1450) scale(1.1)"/>
		<use href="#heart" fill="#d64f59" transform="translate(800,1800) scale(0.7)"/>
		<use href="#heart" fill="#f4c2cb" transform="translate(250,2100) scale(1)"/>
		<use href="#heart" fill="#e8879b" transform="translate(1000,2500) scale(0.9)"/>
		<use href="#heart" fill="#d64f59" transform="translate(150,3000) scale(0.8)"/>
		<use href="#heart" fill="#f4c2cb" transform="translate(700,3300) scale(1.1)"/>
		<use href="#heart" fill="#e8879b" transform="translate(350,3700) scale(0.9)"/>
		<use href="#heart" fill="#d64f59" transform="translate(1050,4100) scale(1)"/>
		<use href="#heart" fill="#f4c2cb" transform="translate(200,4500) scale(0.8)"/>
		<use href="#heart" fill="#e8879b" transform="translate(850,4700) scale(0.7)"/>
		<circle cx="480" cy="350" r="12" fill="#f6ae2d" opacity="0.85"/>
		<circle cx="750" cy="700" r="10" fill="#d64f59" opacity="0.85"/>
		<circle cx="200" cy="1200" r="14" fill="#e8879b" opacity="0.85"/>
		<circle cx="1080" cy="1700" r="11" fill="#f6ae2d" opacity="0.85"/>
		<circle cx="550" cy="2000" r="13" fill="#d64f59" opacity="0.85"/>
		<circle cx="900" cy="2600" r="10" fill="#f4c2cb" opacity="0.85"/>
		<circle cx="100" cy="3200" r="12" fill="#f6ae2d" opacity="0.85"/>
		<circle cx="650" cy="3600" r="14" fill="#e8879b" opacity="0.85"/>
		<circle cx="1100" cy="4300" r="11" fill="#d64f59" opacity="0.85"/>
		<circle cx="350" cy="4650" r="13" fill="#f6ae2d" opacity="0.85"/>
	</g>

	<!-- Confetti dots -->
	<g opacity="0.45">
		<circle cx="942" cy="157" r="3" fill="#d64f59"/><circle cx="211" cy="406" r="4" fill="#e8879b"/>
		<circle cx="103" cy="629" r="3" fill="#f4c2cb"/><circle cx="780" cy="847" r="4" fill="#d64f59"/>
		<circle cx="444" cy="1047" r="3" fill="#e8879b"/><circle cx="1070" cy="1287" r="5" fill="#f6ae2d"/>
		<circle cx="180" cy="1428" r="3" fill="#d64f59"/><circle cx="550" cy="1638" r="4" fill="#e8879b"/>
		<circle cx="900" cy="1838" r="3" fill="#f4c2cb"/><circle cx="340" cy="2038" r="4" fill="#d64f59"/>
		<circle cx="750" cy="2238" r="3" fill="#f6ae2d"/><circle cx="130" cy="2438" r="4" fill="#e8879b"/>
		<circle cx="1040" cy="2638" r="3" fill="#d64f59"/><circle cx="480" cy="2838" r="5" fill="#f4c2cb"/>
		<circle cx="800" cy="3038" r="3" fill="#e8879b"/><circle cx="200" cy="3238" r="4" fill="#d64f59"/>
		<circle cx="650" cy="3438" r="3" fill="#f6ae2d"/><circle cx="1100" cy="3638" r="4" fill="#e8879b"/>
		<circle cx="380" cy="3838" r="3" fill="#d64f59"/><circle cx="920" cy="4038" r="5" fill="#f4c2cb"/>
		<circle cx="160" cy="4238" r="3" fill="#e8879b"/><circle cx="700" cy="4438" r="4" fill="#d64f59"/>
		<circle cx="1060" cy="4638" r="3" fill="#f6ae2d"/><circle cx="500" cy="4780" r="4" fill="#e8879b"/>
		<circle cx="60" cy="280" r="3" fill="#f6ae2d"/><circle cx="1140" cy="520" r="4" fill="#d64f59"/>
		<circle cx="420" cy="760" r="3" fill="#e8879b"/><circle cx="880" cy="980" r="4" fill="#f4c2cb"/>
		<circle cx="300" cy="1180" r="3" fill="#d64f59"/><circle cx="1020" cy="1580" r="4" fill="#f6ae2d"/>
		<circle cx="620" cy="1780" r="3" fill="#e8879b"/><circle cx="80" cy="1980" r="4" fill="#d64f59"/>
		<circle cx="960" cy="2180" r="3" fill="#f4c2cb"/><circle cx="240" cy="2580" r="4" fill="#e8879b"/>
		<circle cx="1080" cy="2980" r="3" fill="#d64f59"/><circle cx="450" cy="3180" r="4" fill="#f6ae2d"/>
		<circle cx="820" cy="3380" r="3" fill="#e8879b"/><circle cx="140" cy="3580" r="4" fill="#d64f59"/>
		<circle cx="680" cy="3780" r="3" fill="#f4c2cb"/><circle cx="1020" cy="3980" r="4" fill="#e8879b"/>
		<circle cx="540" cy="4180" r="3" fill="#d64f59"/><circle cx="860" cy="4380" r="4" fill="#f6ae2d"/>
		<circle cx="290" cy="4580" r="3" fill="#e8879b"/><circle cx="730" cy="4750" r="4" fill="#d64f59"/>
	</g>
</svg>
